<?xml version="1.0" encoding="UTF-8"?>
<svg id="Layer_2" xmlns="http://www.w3.org/2000/svg" viewBox="0 0 130.95 50.32">
  <defs>
    <style>
      .cls-1 {
        fill: #010101;
      }
    </style>
  </defs>
  <g id="Layer_1-2" data-name="Layer_1">
    <g>
      <g>
        <path class="cls-1" d="M14.14,21.2c-.89.91-2.03,1.35-3.49,1.35-1.36,0-2.45-.41-3.34-1.24-.87-.81-1.29-1.95-1.29-3.47s.43-2.6,1.32-3.48c.89-.88,1.99-1.31,3.36-1.31s2.4.42,3.29,1.29l.81.79,3.96-4.14-.78-.77c-2.02-1.99-4.48-3-7.31-3-3.01,0-5.56.94-7.57,2.79-2.04,1.87-3.07,4.51-3.07,7.82s1.03,5.95,3.07,7.82c2.01,1.85,4.56,2.79,7.57,2.79s5.53-1.06,7.64-3.14l.81-.79-4.17-4.11-.78.8Z"/>
        <path class="cls-1" d="M30.52,7.4c-1.83,0-3.42.46-4.75,1.38V.07h-6.01v27.9h6.01v-10.54c0-1.24.37-2.25,1.12-3.08.73-.8,1.63-1.19,2.75-1.19s1.93.31,2.52.95c.6.65.91,1.67.91,3.03v10.83h6.01v-10.87c0-2.92-.71-5.27-2.12-6.99-1.46-1.79-3.63-2.7-6.44-2.7Z"/>
        <path class="cls-1" d="M46.41.41c-1.09-.55-2.25-.55-3.34,0-1.15.58-1.79,1.66-1.79,3.05,0,1.77.97,2.65,1.78,3.06.55.28,1.12.43,1.68.43.57,0,1.13-.14,1.69-.43.81-.42,1.78-1.29,1.78-3.06,0-1.39-.64-2.47-1.79-3.05Z"/>
        <rect class="cls-1" x="41.72" y="7.59" width="6.01" height="20.38"/>
        <path class="cls-1" d="M55.31,21.79c-1.08-.55-2.24-.55-3.33,0-1.15.58-1.79,1.66-1.79,3.05,0,1.77.97,2.65,1.78,3.06.55.28,1.12.43,1.68.43s1.13-.14,1.68-.43c.8-.42,1.75-1.29,1.75-3.06s-.96-2.64-1.77-3.05Z"/>
      </g>
      <g>
        <path class="cls-1" d="M8.85,36.99l-3.89,5.95h-.26l-3.92-5.95v9.02h-.78v-10.15h.93l3.89,5.92,3.84-5.92h.96v10.15h-.77v-9.02Z"/>
        <path class="cls-1" d="M18.89,38.84v7.17h-.71v-1.52c-.68,1.09-1.65,1.64-2.93,1.64-1.02,0-1.88-.35-2.58-1.04s-1.06-1.58-1.06-2.65.35-1.95,1.05-2.64c.7-.69,1.56-1.03,2.59-1.03.61,0,1.18.14,1.7.42.53.28.94.69,1.23,1.23v-1.57h.71ZM13.16,40.27c-.56.56-.84,1.27-.84,2.15s.28,1.6.84,2.16,1.26.84,2.09.84c.55,0,1.04-.11,1.47-.33.43-.22.75-.51.97-.86.22-.35.39-.74.49-1.16.11-.43.11-.85,0-1.28-.11-.43-.27-.82-.49-1.17-.22-.35-.55-.63-.97-.86-.43-.22-.91-.33-1.47-.33-.83,0-1.53.28-2.09.83Z"/>
        <path class="cls-1" d="M21.91,38.84l.03,1.28c.21-.45.54-.79.97-1.02.44-.22.9-.33,1.41-.33.54-.02,1.05.12,1.54.42l-.32.58c-.36-.22-.76-.33-1.22-.33-.67,0-1.23.25-1.68.71-.45.46-.68,1.03-.68,1.68v4.18h-.71v-7.17h.67Z"/>
        <path class="cls-1" d="M27.78,35.85v6.12l3.38-3.13h.94v.03l-3.63,3.35,4.05,3.74v.04h-.9l-3.84-3.51v3.51h-.7v-10.15h.7Z"/>
        <path class="cls-1" d="M33.89,45.11c-.7-.68-1.04-1.57-1.04-2.68s.35-1.95,1.06-2.65c.71-.7,1.57-1.05,2.58-1.05,1.1,0,2,.34,2.69,1.03.69.69.97,1.69.85,3h-6.46c.07.81.38,1.46.94,1.94.56.48,1.22.73,1.98.73.49,0,.98-.1,1.47-.29.48-.19.86-.46,1.12-.8l.51.41c-.34.44-.79.79-1.35,1.02-.56.24-1.14.36-1.74.36-1.03,0-1.9-.34-2.6-1.02ZM39.39,42.13c0-.87-.28-1.55-.8-2.03-.52-.48-1.22-.73-2.1-.73-.76,0-1.42.25-1.97.74-.55.49-.87,1.17-.94,2.02h5.82Z"/>
        <path class="cls-1" d="M43.22,36.68v2.16h2.44v.59h-2.44v4.37c0,.55.09.96.27,1.24.18.28.53.41,1.05.41.33,0,.7-.1,1.1-.29l.25.58c-.5.24-.95.36-1.35.36-.73,0-1.24-.2-1.55-.59s-.46-.97-.46-1.71v-4.37h-1.52v-.59h1.52v-2.09l.7-.07Z"/>
        <path class="cls-1" d="M47.13,36.09c.12-.1.25-.15.39-.15s.27.05.39.15c.12.1.18.24.18.41s-.06.31-.18.41-.25.15-.39.15-.27-.05-.39-.15c-.12-.1-.18-.24-.18-.41s.06-.31.18-.41ZM47.15,38.81v7.19h.71v-7.19h-.71Z"/>
        <path class="cls-1" d="M50.91,38.84v1.28c.51-.92,1.36-1.39,2.55-1.41.97,0,1.75.28,2.34.85s.89,1.34.89,2.31v4.13h-.71v-4.12c0-.8-.23-1.42-.68-1.85-.45-.43-1.08-.64-1.87-.63-.74,0-1.34.26-1.81.75-.47.49-.7,1.11-.7,1.86v3.99h-.71v-7.17h.7Z"/>
        <path class="cls-1" d="M65.14,38.48l.46.41-.74.87c.32.35.57.7.74,1.06.17.36.26.83.26,1.41,0,.69-.2,1.33-.59,1.94-.4.6-.96.99-1.7,1.17.68.15,1.22.43,1.62.83.41.4.61.91.61,1.54,0,.82-.35,1.47-1.05,1.93s-1.55.7-2.56.7-1.83-.26-2.52-.77c-.68-.51-1.02-1.21-1.02-2.09h.71c0,.7.28,1.23.83,1.61.56.38,1.22.57,1.99.57s1.49-.16,2.06-.49c.57-.32.86-.81.86-1.46s-.3-1.14-.88-1.47-1.27-.5-2.03-.5c-1.1,0-1.99-.31-2.68-.93-.68-.62-1.02-1.47-1.02-2.57s.38-1.94,1.13-2.56c.75-.62,1.61-.94,2.57-.94.88,0,1.61.21,2.2.62l.74-.87ZM60.12,40.13c-.61.49-.91,1.19-.91,2.1s.28,1.63.83,2.11c.55.48,1.27.72,2.16.72s1.6-.28,2.15-.83c.55-.56.83-1.22.83-1.99,0-.93-.29-1.63-.87-2.11-.58-.48-1.28-.72-2.1-.72-.77,0-1.47.24-2.07.73Z"/>
        <path class="cls-1" d="M76.33,40.15c-.57-.5-1.32-.75-2.23-.75-.61,0-1.12.1-1.54.33-.42.23-.63.56-.62.99,0,.15.03.29.09.41.06.12.16.23.3.32.14.09.25.16.36.22.1.05.26.11.49.16.22.05.37.09.46.11s.24.05.49.09c.99.16,1.65.34,2,.52.67.33.99.86.96,1.58,0,.49-.18.9-.51,1.21s-.7.52-1.11.63-.85.16-1.33.16c-.66,0-1.27-.12-1.83-.37-.57-.25-1-.6-1.3-1.07l.52-.46c.28.41.66.71,1.14.91.48.2.97.3,1.49.3.35,0,.67-.03.97-.09.3-.06.58-.2.85-.42.27-.22.4-.5.41-.85,0-.2-.03-.38-.13-.53-.1-.15-.21-.27-.33-.36-.12-.09-.3-.17-.55-.25-.25-.07-.45-.13-.62-.16-.16-.03-.4-.07-.71-.12-.36-.06-.64-.11-.84-.15-.2-.04-.44-.11-.73-.21s-.5-.21-.65-.33-.28-.29-.4-.5c-.12-.21-.17-.45-.17-.73,0-.66.26-1.16.82-1.5.56-.34,1.23-.51,2.02-.5,1.1,0,1.99.32,2.67.96l-.44.46Z"/>
        <path class="cls-1" d="M79.43,45.12c-.7-.67-1.04-1.56-1.04-2.67s.35-2.01,1.04-2.7c.7-.69,1.56-1.03,2.6-1.03s1.9.34,2.6,1.03c.7.69,1.04,1.59,1.04,2.7s-.35,2-1.04,2.67-1.56,1-2.6,1-1.9-.33-2.6-1ZM84.13,44.62c.56-.54.84-1.26.84-2.16s-.28-1.65-.85-2.21c-.57-.57-1.26-.85-2.1-.85s-1.53.28-2.1.85-.85,1.3-.85,2.21.28,1.62.84,2.16c.56.54,1.26.81,2.1.81s1.54-.27,2.1-.81Z"/>
        <path class="cls-1" d="M88.35,35.85v10.15h-.71v-10.15h.71Z"/>
        <path class="cls-1" d="M96.49,46.01v-1.29c-.51.92-1.36,1.39-2.55,1.41-.97,0-1.75-.28-2.34-.85s-.89-1.34-.89-2.31v-4.13h.71v4.12c0,.8.23,1.42.68,1.85.45.43,1.08.64,1.87.63.73,0,1.34-.26,1.81-.75s.7-1.11.7-1.86v-3.99h.71v7.18h-.7Z"/>
        <path class="cls-1" d="M101.06,36.68v2.16h2.44v.59h-2.44v4.37c0,.55.09.96.27,1.24.18.28.53.41,1.05.41.33,0,.7-.1,1.1-.29l.25.58c-.5.24-.95.36-1.35.36-.73,0-1.24-.2-1.55-.59s-.46-.97-.46-1.71v-4.37h-1.52v-.59h1.52v-2.09l.7-.07Z"/>
        <path class="cls-1" d="M104.97,36.09c.12-.1.25-.15.39-.15s.27.05.39.15c.12.1.18.24.18.41s-.06.31-.18.41-.25.15-.39.15-.27-.05-.39-.15c-.12-.1-.18-.24-.18-.41s.06-.31.18-.41ZM104.99,38.81v7.19h.71v-7.19h-.71Z"/>
        <path class="cls-1" d="M108.62,45.12c-.7-.67-1.04-1.56-1.04-2.67s.35-2.01,1.04-2.7c.7-.69,1.56-1.03,2.6-1.03s1.9.34,2.6,1.03c.7.69,1.04,1.59,1.04,2.7s-.35,2-1.04,2.67-1.56,1-2.6,1-1.9-.33-2.6-1ZM113.32,44.62c.56-.54.84-1.26.84-2.16s-.28-1.65-.85-2.21c-.57-.57-1.26-.85-2.1-.85s-1.53.28-2.1.85-.85,1.3-.85,2.21.28,1.62.84,2.16c.56.54,1.26.81,2.1.81s1.54-.27,2.1-.81Z"/>
        <path class="cls-1" d="M117.43,38.84v1.28c.51-.92,1.36-1.39,2.55-1.41.97,0,1.75.28,2.34.85s.89,1.34.89,2.31v4.13h-.71v-4.12c0-.8-.23-1.42-.68-1.85-.45-.43-1.08-.64-1.87-.63-.74,0-1.34.26-1.81.75-.47.49-.7,1.11-.7,1.86v3.99h-.71v-7.17h.7Z"/>
        <path class="cls-1" d="M130.21,40.15c-.57-.5-1.32-.75-2.23-.75-.61,0-1.12.1-1.54.33-.42.23-.63.56-.62.99,0,.15.03.29.09.41.06.12.16.23.3.32.14.09.25.16.36.22.1.05.26.11.49.16.22.05.37.09.46.11s.24.05.49.09c.99.16,1.65.34,2,.52.67.33.99.86.96,1.58,0,.49-.18.9-.51,1.21s-.7.52-1.11.63-.85.16-1.33.16c-.66,0-1.27-.12-1.83-.37-.57-.25-1-.6-1.3-1.07l.52-.46c.28.41.66.71,1.14.91.48.2.97.3,1.49.3.35,0,.67-.03.97-.09.3-.06.58-.2.85-.42.27-.22.4-.5.41-.85,0-.2-.03-.38-.13-.53-.1-.15-.21-.27-.33-.36-.12-.09-.3-.17-.55-.25-.25-.07-.45-.13-.62-.16-.16-.03-.4-.07-.71-.12-.36-.06-.64-.11-.84-.15-.2-.04-.44-.11-.73-.21s-.5-.21-.65-.33-.28-.29-.4-.5c-.12-.21-.17-.45-.17-.73,0-.66.26-1.16.82-1.5.56-.34,1.23-.51,2.02-.5,1.1,0,1.99.32,2.67.96l-.44.46Z"/>
      </g>
    </g>
  </g>
</svg>